<svg width="27" height="21" viewBox="0 0 27 21" fill="none" xmlns="http://www.w3.org/2000/svg">
<g clip-path="url(#clip0_77_11)">
<path d="M26.8818 12.8112C26.8457 13.3334 26.8003 13.8549 26.7753 14.3778C26.722 15.4748 26.5905 16.5553 26.1466 17.5734C25.5389 18.9676 24.4597 19.7805 22.9668 19.9403C21.5423 20.0929 20.1059 20.1442 18.6735 20.2053C17.3451 20.2619 16.014 20.3033 14.6848 20.2954C12.4803 20.2823 10.2752 20.2376 8.07135 20.1803C6.90926 20.1501 5.74651 20.083 4.58639 19.9995C3.70972 19.937 2.85805 19.7548 2.10305 19.2583C1.10209 18.6006 0.573981 17.6286 0.376682 16.4915C0.210293 15.53 0.0978328 14.5514 0.064292 13.5767C0.00247161 11.7938 -0.0126547 10.0069 0.00904825 8.22271C0.0235168 7.02576 0.0879679 5.82487 0.217528 4.63515C0.330646 3.59802 0.610153 2.58653 1.29544 1.75327C1.95508 0.950922 2.80675 0.429394 3.83797 0.324168C5.15855 0.18869 6.48769 0.0893825 7.81486 0.0657066C10.8329 0.0130935 13.8522 -0.0138707 16.8702 0.00717454C18.6801 0.0196701 20.49 0.128185 22.2986 0.222888C23.464 0.284051 24.5248 0.635901 25.3751 1.49152C26.0118 2.13143 26.3051 2.9318 26.5116 3.78216C26.7654 4.82785 26.7608 5.89787 26.8286 6.96131C26.8391 7.12572 26.8641 7.28882 26.8818 7.45258V12.8106V12.8112ZM12.9236 18.7269V18.721C13.2735 18.721 13.624 18.7302 13.9732 18.7197C16.5177 18.644 19.0629 18.5743 21.6067 18.4777C22.1789 18.4559 22.7662 18.402 23.3127 18.2435C24.2111 17.9831 24.6425 17.2623 24.8904 16.4001C25.2041 15.3097 25.2002 14.1864 25.2495 13.071C25.3521 10.7705 25.3455 8.46802 25.1943 6.16948C25.143 5.38818 25.041 4.60424 24.8799 3.83872C24.6366 2.68321 23.8737 2.01502 22.7077 1.88217C21.7356 1.77103 20.7557 1.71578 19.7778 1.67896C18.1514 1.61779 16.5243 1.58294 14.8972 1.55268C11.4221 1.48823 7.95099 1.60332 4.48379 1.82759C3.13953 1.9144 2.3431 2.60955 1.97941 3.89791C1.67623 4.97319 1.67228 6.07741 1.62493 7.17505C1.51312 9.75572 1.5414 12.337 1.72358 14.9151C1.77553 15.6523 1.90443 16.3731 2.20959 17.0492C2.56868 17.843 3.24673 18.233 4.06749 18.3224C5.23945 18.45 6.41864 18.5355 7.59651 18.5835C9.37089 18.6565 11.1472 18.6815 12.9229 18.7269H12.9236Z" fill="#D3AD7F"/>
<path d="M10.0215 9.85447C10.0215 8.82194 10.055 7.78809 10.0116 6.75753C9.9748 5.8789 10.8409 5.21729 11.7525 5.725C13.6525 6.78318 15.5636 7.82032 17.4735 8.86074C17.8832 9.08435 18.1423 9.41055 18.1436 9.87749C18.145 10.3569 17.876 10.6871 17.4564 10.9113C15.5465 11.9333 13.6321 12.9461 11.7354 13.9912C10.8607 14.4732 9.97348 13.832 10.0116 12.9508C10.0557 11.9202 10.0221 10.8863 10.0221 9.85381L10.0215 9.85447ZM16.0266 9.87749C14.5377 9.06199 13.0875 8.26819 11.6196 7.46452V12.2477C13.0921 11.4559 14.5364 10.6792 16.0266 9.87749Z" fill="#D3AD7F"/>
</g>
<defs>
<clipPath id="clip0_77_11">
<rect width="26.882" height="20.2955" fill="white"/>
</clipPath>
</defs>
</svg>
